<?xml version="1.0" encoding="iso-8859-1"?>
<!-- Generator: Adobe Illustrator 19.0.0, SVG Export Plug-In . SVG Version: 6.00 Build 0)  -->
<svg version="1.1" id="Layer_1" xmlns="http://www.w3.org/2000/svg" xmlns:xlink="http://www.w3.org/1999/xlink" x="0px" y="0px"
	 viewBox="0 0 512 512" style="enable-background:new 0 0 512 512;" xml:space="preserve">
<path style="fill:#607D8B;" d="M85.333,98.133h341.333c18.85,0,34.133,15.283,34.133,34.133v247.467
	c0,18.85-15.283,34.133-34.133,34.133H85.333c-18.85,0-34.133-15.283-34.133-34.133V132.267
	C51.2,113.417,66.483,98.133,85.333,98.133z"/>
<path style="fill:#CFD8DC;" d="M85.333,98.133h307.2c18.85,0,34.133,15.283,34.133,34.133v247.467
	c0,18.85-15.283,34.133-34.133,34.133h-307.2c-18.85,0-34.133-15.283-34.133-34.133V132.267
	C51.2,113.417,66.483,98.133,85.333,98.133z"/>
<path d="M426.667,422.4H85.333c-23.561,0-42.667-19.106-42.667-42.667V132.267c0-23.561,19.106-42.667,42.667-42.667h341.333
	c23.561,0,42.667,19.106,42.667,42.667v247.467C469.333,403.294,450.227,422.4,426.667,422.4z M85.333,106.667
	c-14.14,0-25.6,11.46-25.6,25.6v247.467c0,14.14,11.46,25.6,25.6,25.6h341.333c14.14,0,25.6-11.46,25.6-25.6V132.267
	c0-14.14-11.46-25.6-25.6-25.6H85.333z"/>
<path style="fill:#607D8B;" d="M426.667,149.333v213.333c0,9.429-7.637,17.067-17.067,17.067H102.4
	c-9.429,0-17.067-7.637-17.067-17.067V149.333c0-9.429,7.637-17.067,17.067-17.067h307.2
	C419.029,132.267,426.667,139.904,426.667,149.333z"/>
<path d="M409.6,388.267H102.4c-14.14,0-25.6-11.46-25.6-25.6V149.333c0-14.14,11.46-25.6,25.6-25.6h307.2
	c14.14,0,25.6,11.46,25.6,25.6v213.333C435.2,376.806,423.74,388.267,409.6,388.267z M102.4,140.8c-4.71,0-8.533,3.823-8.533,8.533
	v213.333c0,4.71,3.823,8.533,8.533,8.533h307.2c4.71,0,8.533-3.823,8.533-8.533V149.333c0-4.71-3.823-8.533-8.533-8.533H102.4z"/>
<g>
	<path style="fill:#37474F;" d="M25.6,157.867h25.6l0,0v196.267l0,0H25.6c-9.429,0-17.067-7.637-17.067-17.067V174.933
		C8.533,165.504,16.171,157.867,25.6,157.867z"/>
	<path style="fill:#37474F;" d="M486.4,354.133h-25.6l0,0V157.867l0,0h25.6c9.429,0,17.067,7.637,17.067,17.067v162.133
		C503.467,346.496,495.829,354.133,486.4,354.133z"/>
</g>
<path d="M51.2,362.667H25.6c-14.14,0-25.6-11.46-25.6-25.6V174.933c0-14.14,11.46-25.6,25.6-25.6h25.6
	c4.71,0,8.533,3.823,8.533,8.533v196.267C59.733,358.844,55.91,362.667,51.2,362.667z M25.6,166.4c-4.71,0-8.533,3.823-8.533,8.533
	v162.133c0,4.71,3.823,8.533,8.533,8.533h17.067V166.4H25.6z"/>
<path d="M486.4,362.667h-25.6c-4.71,0-8.533-3.823-8.533-8.533V157.867c0-4.71,3.823-8.533,8.533-8.533h25.6
	c14.14,0,25.6,11.46,25.6,25.6v162.133C512,351.206,500.54,362.667,486.4,362.667z M469.333,345.6H486.4
	c4.71,0,8.533-3.823,8.533-8.533V174.933c0-4.71-3.823-8.533-8.533-8.533h-17.067V345.6z"/>
<rect x="110.933" y="132.267" width="17.067" height="247.467"/>
<rect x="85.333" y="166.4" width="341.333" height="17.067"/>
<rect x="85.333" y="217.6" width="341.333" height="17.067"/>
<rect x="85.333" y="277.333" width="341.333" height="17.067"/>
<rect x="85.333" y="328.533" width="341.333" height="17.067"/>
<rect x="145.067" y="132.267" width="17.067" height="247.467"/>
<rect x="179.2" y="132.267" width="17.067" height="247.467"/>
<rect x="213.333" y="132.267" width="17.067" height="247.467"/>
<rect x="247.467" y="132.267" width="17.067" height="247.467"/>
<rect x="281.6" y="132.267" width="17.067" height="247.467"/>
<rect x="315.733" y="132.267" width="17.067" height="247.467"/>
<rect x="349.867" y="132.267" width="17.067" height="247.467"/>
<rect x="384" y="132.267" width="17.067" height="247.467"/>
<g>
</g>
<g>
</g>
<g>
</g>
<g>
</g>
<g>
</g>
<g>
</g>
<g>
</g>
<g>
</g>
<g>
</g>
<g>
</g>
<g>
</g>
<g>
</g>
<g>
</g>
<g>
</g>
<g>
</g>
</svg>
